<?xml version="1.0" encoding="UTF-8" standalone="no"?>
<!-- Created with Inkscape (http://www.inkscape.org/) -->

<svg
   width="48pt"
   height="48pt"
   viewBox="0 0 16.933334 16.933333"
   version="1.1"
   id="svg979"
   inkscape:version="1.1 (c68e22c387, 2021-05-23)"
   sodipodi:docname="24 - Earth.svg"
   inkscape:export-filename="E:\TR Design Studio Creative\Project Design\TR Creative Design\Icon Design\Project Hiring\Icon Icons\006 - Ecology\Send\1 - Line\24 - Earth.png"
   inkscape:export-xdpi="768"
   inkscape:export-ydpi="768"
   xmlns:inkscape="http://www.inkscape.org/namespaces/inkscape"
   xmlns:sodipodi="http://sodipodi.sourceforge.net/DTD/sodipodi-0.dtd"
   xmlns="http://www.w3.org/2000/svg"
   xmlns:svg="http://www.w3.org/2000/svg"
   xmlns:rdf="http://www.w3.org/1999/02/22-rdf-syntax-ns#"
   xmlns:cc="http://creativecommons.org/ns#"
   xmlns:dc="http://purl.org/dc/elements/1.1/">
  <defs
     id="defs973" />
  <sodipodi:namedview
     id="base"
     pagecolor="#ffffff"
     bordercolor="#666666"
     borderopacity="1.0"
     inkscape:pageopacity="0.0"
     inkscape:pageshadow="2"
     inkscape:zoom="6.0435533"
     inkscape:cx="22.503318"
     inkscape:cy="31.934855"
     inkscape:document-units="pt"
     inkscape:current-layer="layer1"
     showgrid="false"
     units="pt"
     inkscape:window-width="1366"
     inkscape:window-height="716"
     inkscape:window-x="-8"
     inkscape:window-y="-8"
     inkscape:window-maximized="1"
     inkscape:pagecheckerboard="0"
     inkscape:snap-bbox="true"
     inkscape:snap-nodes="false"
     inkscape:bbox-nodes="true"
     showguides="false">
    <inkscape:grid
       type="xygrid"
       id="grid1526" />
    <sodipodi:guide
       position="0.97013909,15.963209"
       orientation="56.666615,0"
       id="guide1528"
       inkscape:locked="false" />
    <sodipodi:guide
       position="0.97013909,0.97016731"
       orientation="0,56.666667"
       id="guide1530"
       inkscape:locked="false" />
    <sodipodi:guide
       position="15.963195,0.97016731"
       orientation="-56.666615,0"
       id="guide1532"
       inkscape:locked="false" />
    <sodipodi:guide
       position="15.963195,15.963209"
       orientation="0,-56.666667"
       id="guide1534"
       inkscape:locked="false" />
  </sodipodi:namedview>
  <metadata
     id="metadata976">
    <rdf:RDF>
      <cc:Work
         rdf:about="">
        <dc:format>image/svg+xml</dc:format>
        <dc:type
           rdf:resource="http://purl.org/dc/dcmitype/StillImage" />
      </cc:Work>
    </rdf:RDF>
  </metadata>
  <g
     inkscape:label="Layer 1"
     inkscape:groupmode="layer"
     id="layer1"
     transform="translate(0,-280.06668)">
    <path
       id="path3484"
       style="color:#000000;display:inline;fill:#000000;stroke-width:1;stroke-linecap:round;stroke-linejoin:round;-inkscape-stroke:none;paint-order:markers fill stroke"
       d="m 8.4676195,281.03714 c -4.1365279,0 -7.49748119,3.35841 -7.49748119,7.49493 0,4.13655 3.36095329,7.49749 7.49748119,7.49749 4.1365315,0 7.4955755,-3.36094 7.4955755,-7.49749 0,-4.13652 -3.359044,-7.49493 -7.4955755,-7.49493 z m 0,0.65191 c 1.1349377,0 2.2046885,0.27535 3.1461815,0.76266 -0.241415,1.46698 -0.383849,2.69926 -1.31717,3.67204 -0.3298444,0.34381 -0.557491,0.42971 -0.7798605,0.41125 -0.2223663,-0.0185 -0.510871,-0.17651 -0.8753513,-0.50739 -0.3261616,-0.29519 -0.703706,-0.53917 -1.0421495,-0.77732 0.041572,-0.0111 0.083573,-0.0236 0.1254157,-0.0362 0.1720201,-0.0526 0.2688303,-0.23472 0.2164502,-0.40679 -0.052579,-0.17202 -0.2347229,-0.26884 -0.4068016,-0.21646 -0.485424,0.14662 -0.9662652,0.21455 -1.2923389,0.21455 -0.00261,-3e-5 -0.00453,-3e-5 -0.00701,0 -1.0507775,0.0211 -2.225331,-0.62164 -2.7622976,-0.95494 1.3743968,-1.3744 3.3784438,-2.13557 4.9949299,-2.16132 z m 0.6749965,8.13627 c -0.033553,-1.32226 -0.5463995,-2.05828 -1.1728163,-2.38505 -0.4860433,-0.25353 -1.0048315,-0.27846 -1.3649148,-0.27502 -1.6056516,0.0145 -3.2332494,0.005 -4.8472323,0.005 0.210179,-1.04328 0.6573234,-1.99996 1.2827918,-2.81196 0.5330844,0.3558 1.8454202,1.12603 3.2066583,1.0988 0.1732033,-2.1e-4 0.3663253,-0.0148 0.5723223,-0.0432 0.123372,0.17391 0.3195449,0.30343 0.4672817,0.41381 0.2780417,0.19502 0.6082907,0.40538 0.9141849,0.6831 0.4101165,0.37231 0.8079513,0.6364 1.2630555,0.67417 0.4551042,0.0378 0.8965799,-0.18677 1.3018889,-0.60924 1.037206,-1.08106 1.23271,-2.40252 1.450862,-3.77134 l -1.6e-5,10e-6 c 1.720144,1.12688 2.900066,3.0077 3.07233,5.17637 -0.332165,-0.14356 -0.652581,-0.22033 -0.952386,-0.2381 -0.05682,-0.004 -0.113375,-0.005 -0.168705,-0.004 -0.387306,0.005 -0.736771,0.10669 -1.03005,0.28076 -0.670359,0.39789 -1.04406,1.11614 -1.04406,1.79973 0,0.30355 -0.05368,0.46781 -0.117774,0.57996 -0.219403,0.26267 -0.528572,0.47504 -0.695187,0.70982 -0.132692,0.20355 -0.214541,0.47894 -0.214541,0.82762 0,0.85081 0.09884,1.4109 0.293482,1.84556 0.129171,0.28845 0.29867,0.50722 0.48192,0.70792 -0.995291,0.56453 -2.1464349,0.88745 -3.374089,0.88745 -2.7429655,0 -5.1053681,-1.6087 -6.1981377,-3.93495 0.1799862,0.0217 0.3574398,0.0388 0.5271195,0.0516 0.5703503,0.043 1.0650508,0.55762 1.4464023,1.12872 0.2999585,0.44922 0.7254632,0.85762 1.2127647,1.13319 0.4843386,0.27388 1.0458165,0.41737 1.5928255,0.27437 0.5485735,-0.12159 0.9415517,-0.42564 1.1522814,-0.7894 0.2058635,-0.35536 0.2502023,-0.75063 0.176981,-1.09499 -0.076089,-0.36666 0.061073,-0.72646 0.2368384,-0.97849 0.2030407,-0.28986 0.5216794,-0.64731 0.5296684,-1.19875 z m -2.5281972,-2.00435 c 0.3334468,0.001 0.7249157,0.0254 1.0523323,0.19608 0.4361827,0.22752 0.8243988,0.68518 0.8250604,1.94424 -0.00519,0.30447 -0.180687,0.50352 -0.4112574,0.8327 -0.051086,0.0729 -0.102603,0.15354 -0.1508788,0.24128 -0.043859,-0.0721 -0.087625,-0.14156 -0.1305071,-0.20753 -0.097974,-0.15201 -0.3012722,-0.19511 -0.4526367,-0.0961 -0.1511788,0.0988 -0.1930046,0.30126 -0.093583,0.452 0.1185122,0.18234 0.2425294,0.39182 0.3342256,0.58251 0.1932296,0.39752 0.1758141,0.77483 0.048436,1.15036 -0.1218632,0.21036 -0.3314487,0.3946 -0.7070145,0.48489 -0.3755626,0.0903 -0.7678563,0.005 -1.1531779,-0.21305 -0.3853248,-0.2179 -0.7468422,-0.56412 -0.9886742,-0.92628 -0.4209479,-0.6304 -1.035598,-1.34884 -1.9416928,-1.41711 -0.2752059,-0.0207 -0.5691507,-0.057 -0.8594383,-0.10447 -0.235489,-0.69268 -0.3628735,-1.43551 -0.3628735,-2.20844 0,-0.23981 0.012282,-0.47644 0.036288,-0.70983 h 4.6460593 c 0.093828,0 0.1982459,-0.001 0.309398,-0.001 z m 7.6922842,0.56087 c 0.290448,0.0182 0.623267,0.11802 1.002043,0.33358 -0.05874,2.24376 -1.193749,4.21634 -2.908082,5.42147 -0.191962,-0.19988 -0.336729,-0.37736 -0.446272,-0.62198 -0.142619,-0.31849 -0.235551,-0.77802 -0.235551,-1.57819 0,-0.25653 0.04845,-0.38005 0.108226,-0.47173 0.131181,-0.16031 0.255241,-0.24982 0.398525,-0.3667 0.09684,-0.0614 0.556854,-0.34452 1.018593,-0.48956 0.172288,-0.0536 0.268039,-0.23723 0.213905,-0.40934 -0.05358,-0.17229 -0.236593,-0.26804 -0.408712,-0.2139 -0.109186,0.0342 -0.216127,0.0739 -0.318309,0.1158 0.0099,-0.0881 0.01464,-0.18196 0.01464,-0.28203 0,-0.43215 0.269912,-0.96754 0.727021,-1.23886 0.228556,-0.13565 0.504218,-0.21937 0.833971,-0.19862 z"
       sodipodi:nodetypes="sssssccscccccccccccsccccccscccccsccsccsscsccsscscccccccsccccccccsccscsccsccssccccccssss" />
  </g>
</svg>
